<svg width="53" height="53" viewBox="0 0 53 53" fill="none" xmlns="http://www.w3.org/2000/svg">
<path d="M39.752 29.4944V39.2914H34.073V30.1489C34.073 27.854 33.2515 26.2879 31.1951 26.2879C29.6263 26.2879 28.6909 27.3426 28.2801 28.3655C28.1317 28.7312 28.092 29.24 28.092 29.7488V39.2914H22.4104C22.4104 39.2914 22.4872 23.8101 22.4104 22.2069H28.092V24.6263L28.0549 24.682H28.092V24.6263C28.8472 23.4603 30.1934 21.8041 33.2118 21.8041C36.9483 21.8041 39.752 24.2474 39.752 29.4944ZM16.4664 13.968C14.524 13.968 13.252 15.2453 13.252 16.9201C13.252 18.5631 14.4869 19.8749 16.3922 19.8749H16.4293C18.4115 19.8749 19.6438 18.5605 19.6438 16.9201C19.6067 15.2453 18.4115 13.968 16.4664 13.968ZM13.5885 39.2914H19.2701V22.2069H13.5885V39.2914Z" fill="white" style="fill:white;fill-opacity:1;"/>
<path d="M10.6 5.3C9.19435 5.3 7.84628 5.85839 6.85233 6.85233C5.85839 7.84628 5.3 9.19435 5.3 10.6V42.4C5.3 43.8056 5.85839 45.1537 6.85233 46.1477C7.84628 47.1416 9.19435 47.7 10.6 47.7H42.4C43.8056 47.7 45.1537 47.1416 46.1477 46.1477C47.1416 45.1537 47.7 43.8056 47.7 42.4V10.6C47.7 9.19435 47.1416 7.84628 46.1477 6.85233C45.1537 5.85839 43.8056 5.3 42.4 5.3H10.6ZM10.6 0H42.4C45.2113 0 47.9074 1.11678 49.8953 3.10467C51.8832 5.09255 53 7.78871 53 10.6V42.4C53 45.2113 51.8832 47.9074 49.8953 49.8953C47.9074 51.8832 45.2113 53 42.4 53H10.6C7.78871 53 5.09255 51.8832 3.10467 49.8953C1.11678 47.9074 0 45.2113 0 42.4V10.6C0 7.78871 1.11678 5.09255 3.10467 3.10467C5.09255 1.11678 7.78871 0 10.6 0Z" fill="white" style="fill:white;fill-opacity:1;"/>
</svg>
