<svg width="90" height="15" viewBox="0 0 90 15" fill="none" xmlns="http://www.w3.org/2000/svg">
<path d="M7.79175 0.000488281C8.46321 -0.0101722 9.12318 0.175809 9.68823 0.535645C10.2532 0.895471 10.698 1.41312 10.9675 2.02295C11.4764 1.87123 12.0144 1.84023 12.5378 1.93115C13.0612 2.02208 13.5556 2.23318 13.9822 2.54736C14.4087 2.86158 14.756 3.27009 14.9949 3.74072C15.2337 4.21121 15.3577 4.73062 15.3582 5.25732C15.3582 5.9673 15.1326 6.65915 14.7136 7.23486C14.2946 7.81059 13.7038 8.24171 13.0242 8.46533V11.8091C13.024 13.2617 12.0076 13.8267 10.989 13.8267C9.52897 13.8267 4.68823 13.7798 4.68823 13.7798L2.47144 14.9995V8.50635C2.02678 8.3804 1.61306 8.16523 1.25464 7.87549C0.896134 7.58566 0.600452 7.22645 0.386475 6.81982C0.172589 6.41327 0.0441995 5.9675 0.00952148 5.51025C-0.0251045 5.05302 0.034126 4.59334 0.184326 4.15967C0.334546 3.72598 0.572873 3.32747 0.883545 2.98779C1.1942 2.64817 1.57132 2.37456 1.99194 2.18408C2.41266 1.99363 2.86844 1.88972 3.33081 1.87939C3.79326 1.8691 4.25339 1.95196 4.68237 2.12354C4.93186 1.50538 5.35986 0.973923 5.91284 0.596191C6.46601 0.218372 7.12013 0.01124 7.79175 0.000488281ZM22.3611 3.12354C22.573 3.12354 22.7438 3.18601 22.8728 3.31201C23.0018 3.438 23.0662 3.60505 23.0662 3.81201V7.45654C23.3887 7.07858 23.7758 6.78191 24.2273 6.56592C24.6881 6.34092 25.1904 6.22803 25.7341 6.22803C26.4067 6.22806 27.0103 6.39506 27.5447 6.72803C28.079 7.052 28.4984 7.49709 28.8025 8.06396C29.1158 8.62189 29.2722 9.2564 29.2722 9.96729C29.2722 10.6781 29.1023 11.3174 28.7615 11.8843C28.4297 12.4513 27.9773 12.9019 27.406 13.2349C26.8349 13.5586 26.1854 13.7202 25.4578 13.7202C24.739 13.7202 24.0935 13.5588 23.5222 13.2349C22.9509 12.9019 22.4995 12.4513 22.1677 11.8843C21.8361 11.3173 21.6652 10.6782 21.656 9.96729V3.81201C21.656 3.6051 21.7205 3.43799 21.8494 3.31201C21.9876 3.18603 22.1584 3.12355 22.3611 3.12354ZM37.0945 6.22803C37.7026 6.22803 38.2418 6.32229 38.7117 6.51123C39.1816 6.70023 39.5553 6.96143 39.8318 7.29443C39.9607 7.43835 40.0206 7.59152 40.0115 7.75342C40.0023 7.90641 39.9236 8.03702 39.7761 8.14502C39.6287 8.24402 39.4535 8.27575 39.2507 8.23975C39.048 8.20374 38.8772 8.12256 38.739 7.99658C38.5087 7.78069 38.2601 7.63224 37.9929 7.55127C37.7257 7.47029 37.4172 7.42922 37.0671 7.4292C36.6617 7.4292 36.3157 7.49732 36.03 7.63232C35.7537 7.76732 35.616 7.96515 35.616 8.22607C35.616 8.38803 35.6571 8.53642 35.74 8.67139C35.8321 8.79739 36.0074 8.91495 36.2654 9.02295C36.5233 9.12189 36.901 9.22089 37.3982 9.31982C38.0893 9.45482 38.6338 9.62552 39.03 9.83252C39.4354 10.0395 39.7251 10.2831 39.9001 10.562C40.0751 10.8319 40.1628 11.1465 40.1628 11.5063C40.1628 11.9203 40.0475 12.2944 39.8171 12.6274C39.596 12.9602 39.2641 13.2254 38.822 13.4233C38.3889 13.6213 37.8453 13.7202 37.1912 13.7202C36.5462 13.7202 35.9472 13.626 35.3943 13.437C34.8507 13.2391 34.4269 12.9917 34.1228 12.6948C33.9846 12.5508 33.9247 12.3885 33.9431 12.2085C33.9708 12.0195 34.0629 11.8665 34.2195 11.7495C34.4038 11.6056 34.5835 11.5467 34.7585 11.5737C34.9427 11.5917 35.0993 11.6684 35.2283 11.8032C35.3849 11.9742 35.6344 12.1366 35.9753 12.2896C36.3254 12.4334 36.7127 12.5054 37.1365 12.5054C37.6705 12.5053 38.0759 12.4203 38.3523 12.2495C38.638 12.0785 38.7855 11.8574 38.7947 11.5874C38.8038 11.3175 38.6706 11.0832 38.3943 10.8853C38.127 10.6873 37.6336 10.5259 36.9148 10.3999C35.9841 10.2199 35.3065 9.94936 34.8826 9.58936C34.4681 9.2294 34.2605 8.78799 34.2605 8.26611C34.2606 7.80732 34.3992 7.42922 34.6755 7.13232C34.952 6.82639 35.3069 6.6015 35.74 6.45752C36.1731 6.30455 36.6246 6.22803 37.0945 6.22803ZM55.4324 6.22803C56.1695 6.22807 56.824 6.3904 57.3953 6.71436C57.9663 7.02931 58.4136 7.46984 58.7361 8.03662C59.0678 8.59459 59.2331 9.24301 59.2332 9.98096C59.2332 10.71 59.0723 11.3583 58.7498 11.9253C58.4272 12.4833 57.9803 12.9245 57.4089 13.2485C56.8377 13.5635 56.1787 13.7202 55.4324 13.7202C54.6862 13.7202 54.027 13.5634 53.4558 13.2485C52.8845 12.9245 52.4321 12.4833 52.1003 11.9253C51.7778 11.3583 51.6169 10.7099 51.6169 9.98096C51.617 9.24301 51.7778 8.59459 52.1003 8.03662C52.4321 7.46969 52.8845 7.02933 53.4558 6.71436C54.0271 6.39042 54.686 6.22803 55.4324 6.22803ZM64.1375 6.22803C64.6811 6.22803 65.1791 6.33157 65.6306 6.53857C66.082 6.73652 66.4871 7.03807 66.8464 7.44287C66.9753 7.58676 67.0218 7.73531 66.9851 7.88818C66.9483 8.04109 66.8471 8.17651 66.6814 8.29346C66.5524 8.38342 66.4093 8.41513 66.2527 8.38818C66.096 8.35218 65.953 8.27102 65.824 8.14502C65.3724 7.67705 64.8101 7.44287 64.1375 7.44287C63.6676 7.4429 63.2526 7.55112 62.8933 7.76709C62.534 7.97408 62.2532 8.2671 62.0505 8.64502C61.8479 9.02293 61.7459 9.46814 61.7458 9.98096C61.7458 10.4669 61.8479 10.8989 62.0505 11.2769C62.2625 11.6549 62.553 11.9562 62.9216 12.1812C63.2902 12.3971 63.7184 12.5054 64.2068 12.5054C64.5291 12.5054 64.8101 12.4699 65.0496 12.3979C65.2984 12.3169 65.5246 12.1947 65.7273 12.0327C65.8746 11.9158 66.0268 11.8533 66.1833 11.8442C66.34 11.8262 66.4786 11.8663 66.5984 11.9653C66.755 12.0913 66.8427 12.236 66.8611 12.3979C66.8794 12.5507 66.8238 12.6901 66.6951 12.8159C66.0316 13.4189 65.202 13.7202 64.2068 13.7202C63.4697 13.7202 62.8107 13.5588 62.2302 13.2349C61.6589 12.9019 61.2075 12.4559 60.8757 11.8979C60.5532 11.3309 60.3914 10.692 60.3914 9.98096C60.3914 9.252 60.5532 8.60359 60.8757 8.03662C61.1982 7.46983 61.6409 7.02927 62.2029 6.71436C62.7649 6.39046 63.4096 6.22806 64.1375 6.22803ZM80.8386 6.22803C81.5573 6.22808 82.202 6.39508 82.7732 6.72803C83.3445 7.05198 83.796 7.49708 84.1277 8.06396C84.4686 8.63093 84.6394 9.27 84.6394 9.98096V12.9917C84.6394 13.1895 84.5704 13.3558 84.4324 13.4907C84.3034 13.6167 84.1371 13.6802 83.9343 13.6802C83.7317 13.6801 83.5617 13.6166 83.4236 13.4907C83.2946 13.3558 83.2293 13.1896 83.2292 12.9917V12.4897C82.9873 12.7806 82.7024 13.0295 82.3728 13.2349C81.8384 13.5588 81.2348 13.7201 80.5623 13.7202C79.8895 13.7202 79.2852 13.5589 78.7507 13.2349C78.2163 12.9019 77.7925 12.4559 77.4792 11.8979C77.1752 11.331 77.0232 10.6919 77.0232 9.98096C77.0232 9.27 77.1895 8.63093 77.5212 8.06396C77.8622 7.49712 78.3182 7.05197 78.8894 6.72803C79.47 6.39503 80.1198 6.22803 80.8386 6.22803ZM69.2322 3.12354C69.4441 3.12354 69.6149 3.18605 69.7439 3.31201C69.8729 3.43801 69.9373 3.60501 69.9373 3.81201V7.11572C70.1427 6.91826 70.3771 6.74769 70.6423 6.60596C71.1306 6.34502 71.6788 6.21442 72.2869 6.21436C72.9226 6.21436 73.4895 6.34975 73.9871 6.61963C74.4939 6.88063 74.8908 7.26776 75.1765 7.78076C75.4713 8.29368 75.6189 8.9236 75.6189 9.67041V12.9917C75.6189 13.1896 75.5491 13.3558 75.4109 13.4907C75.2819 13.6167 75.1165 13.6801 74.9138 13.6802C74.7111 13.6802 74.5403 13.6167 74.4021 13.4907C74.2733 13.3558 74.2088 13.1895 74.2087 12.9917V9.67041C74.2087 9.15773 74.112 8.73943 73.9187 8.41553C73.7252 8.09157 73.4623 7.85271 73.1306 7.69971C72.8081 7.53771 72.4344 7.45654 72.0105 7.45654C71.6237 7.45659 71.2738 7.53318 70.9607 7.68604C70.6474 7.83904 70.3979 8.04613 70.2136 8.30713C70.0524 8.52769 69.9622 8.77941 69.9421 9.06201L69.9373 9.18506V12.9917C69.9372 13.1896 69.8728 13.3558 69.7439 13.4907C69.6149 13.6167 69.4441 13.6802 69.2322 13.6802C69.0296 13.6801 68.8596 13.6166 68.7214 13.4907C68.5925 13.3558 68.5271 13.1896 68.5271 12.9917V3.81201C68.5271 3.60501 68.5924 3.43801 68.7214 3.31201C68.8596 3.18622 69.0297 3.1236 69.2322 3.12354ZM31.6658 6.28174C31.8776 6.28178 32.0485 6.34523 32.1775 6.47119C32.3062 6.59708 32.3708 6.76354 32.3708 6.97021V12.978C32.3708 13.176 32.3065 13.343 32.1775 13.478C32.0485 13.604 31.8776 13.6665 31.6658 13.6665C31.4631 13.6665 31.2922 13.6039 31.1541 13.478C31.025 13.343 30.9607 13.176 30.9607 12.978V6.97021C30.9608 6.76343 31.0252 6.59711 31.1541 6.47119C31.2923 6.34519 31.463 6.28174 31.6658 6.28174ZM42.4021 3.93311C42.6048 3.93312 42.7702 3.99658 42.8992 4.12256C43.0281 4.24852 43.0935 4.40999 43.0935 4.60791V6.55225H44.2683C44.4617 6.55229 44.6183 6.6064 44.738 6.71436C44.8577 6.82233 44.9177 6.9661 44.9177 7.146C44.9177 7.308 44.8578 7.44327 44.738 7.55127C44.6183 7.65916 44.4617 7.71334 44.2683 7.71338H43.0935V11.0474C43.0935 11.4072 43.1946 11.7087 43.3972 11.9517C43.5999 12.1946 43.8486 12.3168 44.1433 12.3169H44.614C44.7796 12.317 44.9176 12.3796 45.0281 12.5054C45.1479 12.6314 45.2078 12.7937 45.2078 12.9917C45.2077 13.1896 45.13 13.3521 44.9734 13.478C44.826 13.604 44.6319 13.6665 44.3923 13.6665H44.1433C43.6827 13.6664 43.2677 13.5536 42.8992 13.3286C42.5309 13.0947 42.2409 12.78 42.0291 12.3843C41.8171 11.9883 41.7107 11.5424 41.7107 11.0474V7.71338H41.075C40.8816 7.71336 40.725 7.65914 40.6052 7.55127C40.4854 7.44327 40.4255 7.308 40.4255 7.146C40.4256 6.96606 40.4855 6.82233 40.6052 6.71436C40.725 6.60637 40.8815 6.55226 41.075 6.55225H41.7107V4.60791C41.7107 4.4102 41.7754 4.24847 41.9041 4.12256C42.0331 3.99656 42.1994 3.93311 42.4021 3.93311ZM50.0925 6.20068C50.6454 6.20069 51.0558 6.29119 51.323 6.47119C51.5993 6.64216 51.7049 6.84936 51.6404 7.09229C51.6127 7.21816 51.5572 7.31721 51.4744 7.38916C51.4007 7.45202 51.3129 7.49228 51.2117 7.51025C51.1105 7.52815 51.0001 7.52446 50.8806 7.49756C50.2908 7.38056 49.7607 7.37121 49.2908 7.47021C48.8209 7.56921 48.4481 7.75397 48.1716 8.02393C47.9044 8.29387 47.7703 8.63543 47.7703 9.04932V12.9917C47.7702 13.2075 47.7102 13.3738 47.5906 13.4907C47.48 13.6077 47.3092 13.6665 47.0789 13.6665C46.8579 13.6665 46.6879 13.6123 46.5681 13.5044C46.4483 13.3874 46.3885 13.2166 46.3884 12.9917V6.95752C46.3884 6.74152 46.4483 6.57452 46.5681 6.45752C46.6878 6.34072 46.858 6.28179 47.0789 6.28174C47.3092 6.28174 47.48 6.34055 47.5906 6.45752C47.7104 6.56552 47.7703 6.73252 47.7703 6.95752V7.2085C47.9964 6.9585 48.263 6.74763 48.572 6.57861C49.0327 6.32669 49.5397 6.20068 50.0925 6.20068ZM87.1941 3.93311C87.3968 3.93312 87.5622 3.99658 87.6912 4.12256C87.8201 4.24852 87.8855 4.40999 87.8855 4.60791V6.55225H89.0603C89.2537 6.55229 89.4103 6.6064 89.53 6.71436C89.6497 6.82233 89.7097 6.9661 89.7097 7.146C89.7097 7.308 89.6498 7.44327 89.53 7.55127C89.4103 7.65916 89.2537 7.71334 89.0603 7.71338H87.8855V11.0474C87.8855 11.4072 87.9866 11.7087 88.1892 11.9517C88.3919 12.1946 88.6406 12.3168 88.9353 12.3169H89.406C89.5716 12.317 89.7096 12.3796 89.8201 12.5054C89.9399 12.6314 89.9998 12.7937 89.9998 12.9917C89.9997 13.1896 89.922 13.3521 89.7654 13.478C89.6179 13.604 89.4239 13.6665 89.1843 13.6665H88.9353C88.4747 13.6664 88.0597 13.5536 87.6912 13.3286C87.3229 13.0947 87.0329 12.78 86.821 12.3843C86.6091 11.9883 86.5027 11.5424 86.5027 11.0474V7.71338H85.8669C85.6736 7.71336 85.517 7.65914 85.3972 7.55127C85.2774 7.44327 85.2175 7.308 85.2175 7.146C85.2175 6.96606 85.2775 6.82234 85.3972 6.71436C85.517 6.60637 85.6735 6.55226 85.8669 6.55225H86.5027V4.60791C86.5027 4.4102 86.5673 4.24847 86.696 4.12256C86.8251 3.99656 86.9914 3.93311 87.1941 3.93311ZM25.4578 7.44287C24.9971 7.44287 24.5777 7.55584 24.2 7.78076C23.8314 7.99673 23.5408 8.29347 23.3289 8.67139C23.117 9.04931 23.0105 9.4814 23.0105 9.96729C23.0105 10.4442 23.117 10.8763 23.3289 11.2632C23.5408 11.6502 23.8313 11.9562 24.2 12.1812C24.5777 12.3971 24.997 12.5054 25.4578 12.5054C25.9276 12.5053 26.347 12.3971 26.7156 12.1812C27.084 11.9562 27.3738 11.6501 27.5857 11.2632C27.8068 10.8762 27.9177 10.4442 27.9177 9.96729C27.9177 9.4814 27.8068 9.04931 27.5857 8.67139C27.3738 8.29364 27.0839 7.99668 26.7156 7.78076C26.347 7.55581 25.9276 7.44292 25.4578 7.44287ZM55.4324 7.44287C54.9532 7.44287 54.5285 7.55109 54.1599 7.76709C53.7915 7.98303 53.5017 8.28463 53.2898 8.67139C53.0779 9.04936 52.9715 9.486 52.9714 9.98096C52.9714 10.476 53.0778 10.9125 53.2898 11.2905C53.5016 11.6683 53.7916 11.9652 54.1599 12.1812C54.5285 12.3972 54.9532 12.5054 55.4324 12.5054C55.9114 12.5053 56.3353 12.3971 56.7039 12.1812C57.0723 11.9652 57.3576 11.6684 57.5603 11.2905C57.7723 10.9125 57.8787 10.476 57.8787 9.98096C57.8786 9.486 57.7722 9.04936 57.5603 8.67139C57.3576 8.28458 57.0723 7.98302 56.7039 7.76709C56.3353 7.55114 55.9114 7.44292 55.4324 7.44287ZM80.8386 7.44287C80.378 7.44287 79.9586 7.55585 79.5808 7.78076C79.2122 7.99674 78.9172 8.29812 78.696 8.68506C78.4841 9.06303 78.3777 9.495 78.3777 9.98096C78.3777 10.4579 78.4841 10.8899 78.696 11.2769C78.9172 11.6549 79.2122 11.9562 79.5808 12.1812C79.9586 12.3971 80.3779 12.5054 80.8386 12.5054C81.3084 12.5053 81.7279 12.3971 82.0964 12.1812C82.4648 11.9562 82.7547 11.6547 82.9666 11.2769C83.1785 10.8899 83.2849 10.458 83.2849 9.98096C83.2849 9.495 83.1785 9.06303 82.9666 8.68506C82.7547 8.29825 82.4648 7.99672 82.0964 7.78076C81.7279 7.55582 81.3084 7.44293 80.8386 7.44287ZM31.6658 3.29834C31.9145 3.29839 32.1265 3.3889 32.3015 3.56885C32.4857 3.73981 32.5779 3.94703 32.5779 4.18994C32.5778 4.43269 32.4856 4.64387 32.3015 4.82373C32.1265 4.99468 31.9145 5.08052 31.6658 5.08057C31.417 5.08057 31.2006 4.99469 31.0164 4.82373C30.8414 4.64382 30.7537 4.43279 30.7537 4.18994C30.7537 3.94694 30.8413 3.73985 31.0164 3.56885C31.2006 3.38891 31.417 3.29834 31.6658 3.29834Z" fill="white" style="fill:white;fill-opacity:1;"/>
</svg>
